<svg version="1.1" id="Layer_1" xmlns="http://www.w3.org/2000/svg" xmlns:xlink="http://www.w3.org/1999/xlink" x="0px" y="0px"
	 width="100%" viewBox="0 0 1200 1200" enable-background="new 0 0 1200 1200" xml:space="preserve">
<path fill="#000000" opacity="1.000000" stroke="none" 
	d="
M528.000000,1201.000000 
	C352.000000,1201.000000 176.500000,1201.000000 1.000000,1201.000000 
	C1.000000,801.000000 1.000000,401.000000 1.000000,1.000000 
	C401.000000,1.000000 801.000000,1.000000 1201.000000,1.000000 
	C1201.000000,401.000000 1201.000000,801.000000 1201.000000,1201.000000 
	C976.833313,1201.000000 752.666687,1201.000000 528.000000,1201.000000 
M1008.021790,641.811096 
	C1008.542664,640.788025 1009.238525,639.816650 1009.558289,638.734192 
	C1015.344910,619.144531 1021.115845,599.550232 1026.830933,579.939636 
	C1038.260498,540.720398 1049.641479,501.487030 1061.070068,462.267487 
	C1064.508179,450.468597 1068.014526,438.689392 1071.538086,426.915649 
	C1072.535278,423.583527 1071.841797,421.694092 1067.938843,421.990753 
	C1066.613525,422.091492 1065.273926,422.004852 1063.940918,422.004852 
	C789.827881,422.004761 515.714905,422.004791 241.601883,422.004761 
	C240.435440,422.004761 239.260574,422.096008 238.104187,421.988373 
	C234.932724,421.693237 233.597687,422.937164 232.663788,426.198914 
	C225.258560,452.062744 217.568390,477.844971 209.959930,503.650574 
	C200.707062,535.033630 191.394623,566.399170 182.206558,597.801208 
	C171.434341,634.617371 160.781326,671.468384 150.051117,708.296814 
	C143.593475,730.460938 137.118118,752.619995 130.571396,774.757874 
	C129.532043,778.272461 129.949387,780.344299 134.215485,780.007446 
	C135.374664,779.915955 136.547256,779.995056 137.713699,779.995056 
	C411.993347,779.995117 686.272949,779.995178 960.552612,779.995117 
	C961.719055,779.995117 962.890137,779.927246 964.051025,780.007263 
	C966.923523,780.205383 968.618042,779.388977 969.252197,776.125854 
	C970.040039,772.071960 971.634399,768.179138 972.801758,764.193787 
	C982.885010,729.770630 992.950623,695.342285 1003.709412,661.195984 
	C1005.414734,661.682617 1007.120117,662.169312 1008.825500,662.655945 
	C1009.256531,660.858887 1010.236267,658.990967 1010.015259,657.278015 
	C1009.359619,652.196472 1008.230835,647.176025 1008.021790,641.811096 
z"/>
<path fill="#1F1E1E" opacity="1.000000" stroke="none" 
	d="
M1003.021484,660.915466 
	C992.950623,695.342285 982.885010,729.770630 972.801758,764.193787 
	C971.634399,768.179138 970.040039,772.071960 969.252197,776.125854 
	C968.618042,779.388977 966.923523,780.205383 964.051025,780.007263 
	C962.890137,779.927246 961.719055,779.995117 960.552612,779.995117 
	C686.272949,779.995178 411.993347,779.995117 137.713699,779.995056 
	C136.547256,779.995056 135.374664,779.915955 134.215485,780.007446 
	C129.949387,780.344299 129.532043,778.272461 130.571396,774.757874 
	C137.118118,752.619995 143.593475,730.460938 150.051117,708.296814 
	C160.781326,671.468384 171.434341,634.617371 182.206558,597.801208 
	C191.394623,566.399170 200.707062,535.033630 209.959930,503.650574 
	C217.568390,477.844971 225.258560,452.062744 232.663788,426.198914 
	C233.597687,422.937164 234.932724,421.693237 238.104187,421.988373 
	C239.260574,422.096008 240.435440,422.004761 241.601883,422.004761 
	C515.714905,422.004791 789.827881,422.004761 1063.940918,422.004852 
	C1065.273926,422.004852 1066.613525,422.091492 1067.938843,421.990753 
	C1071.841797,421.694092 1072.535278,423.583527 1071.538086,426.915649 
	C1068.014526,438.689392 1064.508179,450.468597 1061.070068,462.267487 
	C1049.641479,501.487030 1038.260498,540.720398 1026.830933,579.939636 
	C1021.115845,599.550232 1015.344910,619.144531 1009.558289,638.734192 
	C1009.238525,639.816650 1008.542664,640.788025 1007.538452,641.571777 
	C1007.699158,625.051392 1008.310852,608.768921 1008.996704,592.489563 
	C1009.633972,577.363037 1010.418579,562.242126 1010.918030,547.111389 
	C1010.964172,545.714478 1009.731079,543.523499 1008.533752,543.014465 
	C1006.763855,542.261963 1004.339600,542.218201 1002.503662,542.819092 
	C1001.648804,543.098938 1001.069336,545.623779 1001.139771,547.093933 
	C1001.525818,555.153320 1002.829956,563.223389 1002.566895,571.248779 
	C1001.820374,594.022949 1000.397095,616.774109 999.393127,639.541138 
	C999.069641,646.876343 999.610596,654.165588 1003.021484,660.915466 
M454.327026,607.156677 
	C449.673950,605.405457 445.036469,603.611145 440.362701,601.916931 
	C436.834076,600.638000 435.892212,598.222168 437.015289,594.819031 
	C438.317261,590.873840 439.884430,587.001282 440.938782,582.992554 
	C442.906158,575.512268 443.558990,568.321289 436.167206,562.853394 
	C433.257599,560.701050 431.050995,557.624146 428.306732,555.216064 
	C424.809235,552.147095 424.512146,549.129150 427.055786,545.181702 
	C432.713226,536.402161 438.054810,527.419067 444.291290,517.272461 
	C436.649719,516.835327 429.910645,516.566406 423.195221,516.010803 
	C420.343689,515.774963 419.046021,516.919006 418.027405,519.429932 
	C415.216797,526.358459 411.967682,533.112427 409.263062,540.079529 
	C406.523773,547.135986 403.215210,553.622742 397.120575,558.497742 
	C394.081177,560.928833 391.588196,564.042969 388.791565,566.906006 
	C391.803345,570.527039 394.117706,573.838562 396.966400,576.598633 
	C400.415466,579.940308 401.786346,583.303162 400.293091,588.165833 
	C398.986572,592.420471 398.457001,596.963928 398.008087,601.422424 
	C396.586060,615.546570 393.155029,628.466553 379.111298,635.581299 
	C378.229706,636.027832 377.433380,636.668274 376.656952,637.292603 
	C369.829468,642.783203 363.015472,648.290588 355.231293,654.572815 
	C362.505707,661.628052 369.224487,668.144348 376.135620,674.847229 
	C378.579620,672.739441 380.394012,671.309692 382.054718,669.719360 
	C389.986359,662.123901 397.998627,654.606018 405.722870,646.803711 
	C408.969757,643.524109 412.064178,643.141968 415.952271,645.230896 
	C420.328735,647.582397 424.815216,649.729065 429.604462,652.141418 
	C435.897644,645.287170 442.108612,638.582092 448.250427,631.814148 
	C453.115448,626.453125 454.280426,626.211365 460.467072,629.772339 
	C463.488922,631.511719 466.348907,633.632324 469.541962,634.951599 
	C474.710968,637.087280 477.601105,640.859680 479.634918,645.890015 
	C482.027740,651.808350 484.975159,657.502502 487.875214,663.706909 
	C503.349396,647.324280 511.516724,628.838806 512.469482,606.381104 
	C510.202606,606.971008 508.478363,607.319031 506.821014,607.868774 
	C500.356079,610.012878 493.970490,612.420349 487.436981,614.323303 
	C484.038361,615.313232 480.059479,616.631531 476.924988,615.744324 
	C469.449097,613.628113 462.319031,610.290161 454.327026,607.156677 
M389.529968,599.135864 
	C392.425751,583.726074 392.425751,583.726074 382.729645,573.307922 
	C377.020782,567.173950 376.576447,565.705566 383.308075,560.461914 
	C397.316986,549.549561 402.943512,533.917480 409.136169,518.229431 
	C389.294342,520.079041 360.964600,536.823303 348.261475,563.691223 
	C335.131348,591.462280 335.587036,619.057556 350.927887,646.895081 
	C362.644714,637.537964 373.800018,628.669373 384.873932,619.700195 
	C385.655823,619.066895 386.051270,617.734192 386.262207,616.655518 
	C387.347321,611.105713 388.313354,605.532654 389.529968,599.135864 
M494.686279,549.826721 
	C484.743317,537.082397 472.321808,527.699036 457.259369,521.706360 
	C453.719543,520.298035 451.884338,521.039429 450.044495,524.208984 
	C445.707123,531.680908 441.206024,539.067749 436.479462,546.298340 
	C434.819763,548.837341 435.184418,550.289795 437.267395,552.173828 
	C440.845551,555.410156 444.323914,558.780090 447.585815,562.331116 
	C448.831818,563.687622 450.058228,565.677002 450.107910,567.411865 
	C450.330536,575.184875 451.214050,583.111511 447.587585,590.460510 
	C445.938507,593.802368 446.975159,595.525635 450.363800,596.767761 
	C459.250732,600.025208 467.992462,603.686096 476.923340,606.811035 
	C479.063568,607.559937 481.895508,607.410156 484.099792,606.705444 
	C492.315002,604.079285 500.339233,600.851379 508.568573,598.275635 
	C511.629272,597.317566 512.457336,595.990723 512.082214,592.973083 
	C510.132080,577.285461 504.553528,563.086975 494.686279,549.826721 
M419.276825,689.119629 
	C438.575745,691.366150 456.124756,686.339722 472.405304,676.219177 
	C481.390533,670.633606 481.312500,670.583984 477.035522,661.091492 
	C472.985016,652.101501 470.120453,642.414490 459.162598,638.627136 
	C456.301697,637.638306 454.907654,637.322815 452.922791,639.561951 
	C447.081451,646.151367 440.997742,652.527161 435.203339,659.156555 
	C432.970886,661.710693 430.737366,662.329651 427.770294,660.817200 
	C423.779938,658.782959 419.674530,656.957397 415.783478,654.751282 
	C413.010284,653.179016 411.052521,653.496887 408.788635,655.763306 
	C403.856232,660.700989 398.608826,665.322327 393.597107,670.183289 
	C390.705780,672.987732 388.022797,676.006958 385.021851,679.165527 
	C395.971863,684.784973 406.723114,688.419250 419.276825,689.119629 
M593.108398,560.224854 
	C585.568909,559.462219 578.042908,558.495605 570.485962,557.998718 
	C563.936218,557.568054 560.263123,563.197876 564.009460,568.454224 
	C567.400818,573.212585 567.651184,578.209045 568.030762,583.540955 
	C568.829895,594.764465 565.050110,605.612915 566.767639,617.146973 
	C568.330444,627.642578 566.406433,638.643188 566.207397,649.424683 
	C566.152527,652.395020 566.511841,655.433655 567.141174,658.341370 
	C568.041809,662.502686 571.649048,664.480408 574.592346,663.192444 
	C577.221130,662.042175 580.099976,660.823059 582.880676,660.793884 
	C588.640259,660.733582 593.431091,658.899841 598.107178,655.621155 
	C608.884094,648.064941 612.261719,632.553894 605.147095,621.522278 
	C600.027100,613.583496 592.317749,609.226501 583.724182,606.051086 
	C577.788330,603.857788 577.802246,602.325745 582.271912,597.984802 
	C587.618835,592.791748 592.850769,587.362732 597.343750,581.437805 
	C602.913757,574.092651 601.115295,565.653320 593.108398,560.224854 
M300.614105,513.457275 
	C292.800415,513.837524 284.971497,514.044312 277.184601,514.729065 
	C275.402832,514.885742 273.765930,516.689514 272.062347,517.735291 
	C273.144104,519.413391 274.098633,521.197144 275.365234,522.721741 
	C275.936707,523.409607 277.160553,523.524048 278.035980,523.995972 
	C284.110596,527.270569 290.171448,530.570801 296.754425,534.143738 
	C293.746979,536.683716 290.987976,538.384766 289.176514,540.797302 
	C288.205963,542.089844 288.247345,544.926453 289.032318,546.446533 
	C289.473969,547.301758 292.504547,547.398193 294.102783,546.929443 
	C296.025208,546.365540 297.664917,544.837830 299.776917,543.506958 
	C299.776917,545.664551 299.883820,547.152649 299.757996,548.620850 
	C299.274902,554.257690 298.451996,559.883118 298.346954,565.523865 
	C298.314972,567.240601 299.851654,569.951965 301.281219,570.448792 
	C302.609314,570.910400 305.429535,569.509827 306.432648,568.102356 
	C317.530670,552.529968 328.475586,536.846191 339.234375,521.037659 
	C340.456940,519.241333 341.209076,516.119751 340.465973,514.320068 
	C339.907684,512.967896 336.588867,512.097229 334.520599,512.136963 
	C323.538025,512.347778 312.562286,512.913879 300.614105,513.457275 
M864.680237,582.908264 
	C873.646118,588.227539 876.684082,596.992737 878.804565,606.850525 
	C876.461853,606.850525 874.491821,607.037720 872.568481,606.817505 
	C865.111084,605.963623 857.852417,607.610474 852.325500,612.097961 
	C844.387878,618.542725 836.995178,625.868896 830.364441,633.664673 
	C819.925293,645.938110 830.346497,656.137756 842.181091,657.834656 
	C851.733887,659.204407 861.411804,657.942810 870.177979,652.838440 
	C872.615173,651.419434 875.528564,650.818237 879.068176,649.535767 
	C878.577209,652.781433 878.108826,655.004700 877.929688,657.251099 
	C877.596558,661.426880 881.182007,664.151978 884.613525,661.841370 
	C886.703308,660.434265 888.831726,657.183838 888.780579,654.807861 
	C888.458679,639.842712 887.566589,624.888794 886.790039,609.934937 
	C886.264954,599.823181 882.559998,590.837097 876.631836,582.750488 
	C871.119080,575.230286 862.397339,571.984558 855.298523,574.887329 
	C849.291504,577.343689 844.451782,581.346313 841.252563,587.080322 
	C838.420288,592.156677 839.216370,596.163391 844.232910,600.240967 
	C845.137817,598.163452 846.145386,596.359558 846.726074,594.427490 
	C849.110962,586.493713 855.735596,581.848389 864.680237,582.908264 
M673.581482,618.687927 
	C670.697144,623.342224 667.873962,628.035767 664.916870,632.643311 
	C656.309692,646.054199 647.553528,659.371460 639.152954,672.909851 
	C638.288452,674.303162 638.683044,677.528931 639.768311,678.880798 
	C642.829163,682.693420 647.317017,681.792908 651.301331,680.672180 
	C659.265503,678.431885 667.099854,675.734558 675.026672,673.355408 
	C681.058777,671.544922 687.178406,670.023682 693.196045,668.169250 
	C694.622192,667.729736 695.795654,666.470642 697.085388,665.588562 
	C696.877136,664.834229 696.668945,664.079895 696.460693,663.325562 
	C688.984619,663.885742 681.436707,663.984253 674.052551,665.134705 
	C666.532959,666.306213 659.174683,668.513062 651.745728,670.266602 
	C651.415161,669.798828 651.084595,669.330994 650.754028,668.863159 
	C653.045044,664.920471 655.218567,660.903625 657.648010,657.048157 
	C667.033508,642.153503 676.642944,627.396790 685.780518,612.352783 
	C687.114380,610.156677 687.576477,605.577698 686.233826,604.077332 
	C684.546448,602.191711 680.341248,601.235168 677.650146,601.825745 
	C670.239746,603.452209 663.059204,606.116943 655.774048,608.326111 
	C651.697388,609.562317 647.630554,610.866150 643.488647,611.838989 
	C640.941284,612.437317 638.540588,613.329041 639.450806,616.222656 
	C640.129456,618.380127 641.844910,620.811646 643.772949,621.783386 
	C645.280273,622.543213 647.937561,621.545715 649.876343,620.793762 
	C652.337158,619.839417 654.526917,618.209900 656.941589,617.108337 
	C662.641785,614.507996 668.379944,611.925049 675.584045,613.107727 
	C674.955139,614.951965 674.441345,616.458618 673.581482,618.687927 
M967.117493,667.431641 
	C978.577026,670.428345 994.960266,665.966919 998.182678,658.169861 
	C994.526123,659.100464 991.355347,659.716675 988.311096,660.717773 
	C978.780701,663.851562 970.007690,664.156799 961.918152,656.588745 
	C954.458313,649.609680 949.375305,641.808411 948.831482,630.778198 
	C957.578613,631.382996 965.998657,631.752625 974.365845,632.627991 
	C978.965271,633.109192 981.296570,632.210754 981.312622,627.488159 
	C981.337341,620.206665 981.219055,612.770630 979.760498,605.688599 
	C978.659851,600.344299 974.754089,595.973816 969.136108,594.021606 
	C955.319885,589.220764 937.456421,597.681274 938.117737,617.044373 
	C938.509521,628.517090 940.868530,640.073914 946.912781,650.003296 
	C951.457031,657.468567 957.550354,664.096924 967.117493,667.431641 
M719.723450,642.008240 
	C719.173523,648.972229 718.521606,655.930115 718.104492,662.902039 
	C717.741455,668.971252 718.605408,669.852234 724.685303,670.758484 
	C728.570801,667.713318 729.630249,663.998169 728.252502,659.244141 
	C727.579468,656.921509 727.754395,654.280396 727.901733,651.804626 
	C728.799255,636.719849 730.019775,621.650024 730.625793,606.554871 
	C730.799927,602.218018 732.229187,601.187317 736.190735,601.230042 
	C750.838257,601.388123 765.488525,601.300903 780.137756,601.283264 
	C781.870605,601.281189 783.603394,601.138367 785.336182,601.060791 
	C784.745911,599.184875 783.879456,598.052246 782.846863,597.872192 
	C777.624695,596.961426 772.374817,595.820618 767.105835,595.649597 
	C756.629456,595.309692 746.132812,595.459167 735.647278,595.601562 
	C731.799377,595.653809 729.080139,595.190735 727.873108,590.632996 
	C727.315125,588.525940 724.478027,585.909607 722.428284,585.675232 
	C720.888000,585.499023 719.035950,588.847656 717.166626,590.444397 
	C716.069458,591.381531 714.683594,592.557861 713.398621,592.594055 
	C708.749817,592.724792 704.089478,592.354736 699.432068,592.299622 
	C696.383301,592.263489 692.853271,592.307678 692.702148,596.382385 
	C692.548706,600.520813 695.692139,601.366089 699.245911,601.312927 
	C704.738159,601.230835 710.244995,601.520020 715.722168,601.221680 
	C720.308289,600.971863 722.219849,602.818115 721.935059,607.281494 
	C721.216003,618.552856 720.518982,629.825562 719.723450,642.008240 
M900.388794,605.964966 
	C898.213867,606.054565 895.112183,605.321655 894.109619,606.451599 
	C892.975403,607.729736 893.070862,610.922974 893.788208,612.853699 
	C895.429993,617.272705 897.941223,621.359253 899.803833,625.707397 
	C904.746948,637.246399 909.397827,648.912170 914.446655,660.403687 
	C916.581909,665.263672 920.502869,666.942139 922.790833,664.305908 
	C924.893982,661.882568 927.075134,658.853760 927.570251,655.821960 
	C929.994507,640.977295 931.936462,626.051636 933.881958,611.132751 
	C934.330688,607.691406 934.371460,604.144043 934.088074,600.687500 
	C933.983337,599.410400 932.404602,598.254089 931.498108,597.042725 
	C930.307617,598.038391 928.940857,598.893860 927.994568,600.083679 
	C927.448792,600.769897 927.566895,601.993835 927.412048,602.979858 
	C925.330261,616.235352 923.282776,629.496460 921.140686,642.742188 
	C920.841797,644.590332 920.083679,646.364258 919.065979,649.737488 
	C916.513123,646.261108 914.154785,644.176208 913.232178,641.580933 
	C910.521362,633.955200 908.498962,626.087891 905.969360,618.393250 
	C904.606018,614.246155 902.756592,610.258789 900.388794,605.964966 
M812.380554,610.849060 
	C808.008057,619.815979 803.635498,628.782959 799.056763,638.172852 
	C798.410217,630.987976 797.998779,624.364624 797.130554,617.801697 
	C796.795227,615.266785 795.788879,612.623413 794.369873,610.512207 
	C793.656067,609.450195 791.334839,609.468567 789.740540,608.998352 
	C789.346619,610.421387 788.522949,611.879700 788.636597,613.260986 
	C789.029358,618.035889 790.271423,622.787720 790.236877,627.541382 
	C790.160645,638.027100 789.462463,648.507202 789.103760,658.992493 
	C788.961182,663.160645 791.455750,666.205994 794.251038,664.977539 
	C796.804199,663.855408 799.903442,661.958740 800.877869,659.618835 
	C804.636902,650.592041 807.615234,641.241577 810.934814,632.029846 
	C813.743652,624.235535 816.219971,616.148987 826.032471,614.235229 
	C826.932068,614.059692 828.073486,613.351257 828.437744,612.577393 
	C829.166748,611.028503 829.878113,609.210999 829.691284,607.610107 
	C829.608032,606.896790 827.380554,606.119507 826.044983,605.922424 
	C820.966492,605.173157 816.499329,606.545837 812.380554,610.849060 
M623.040710,642.160889 
	C623.052490,647.467407 622.747437,652.800842 623.194336,658.070496 
	C623.464111,661.250122 624.643372,664.444641 625.943726,667.399231 
	C626.457947,668.567505 628.409729,669.103149 629.706909,669.926880 
	C630.415833,668.600647 631.740112,667.266174 631.722351,665.949768 
	C631.659973,661.331360 630.903381,656.722839 630.830933,652.104004 
	C630.628052,639.168640 630.677856,626.229492 630.532410,613.292969 
	C630.491638,609.659973 626.909180,606.062622 624.332153,607.441528 
	C622.557251,608.391174 620.857422,611.481628 620.934326,613.547913 
	C621.278442,622.797424 622.272034,632.022705 623.040710,642.160889 
M275.701752,575.538391 
	C277.394043,574.525696 280.000366,573.895142 280.612396,572.430908 
	C282.699341,567.438416 284.327759,562.210205 285.581207,556.941162 
	C285.935974,555.449890 284.791412,553.142700 283.602600,551.923096 
	C282.934418,551.237671 279.943695,551.442200 279.411194,552.216553 
	C275.252869,558.263916 271.878174,564.724976 272.733887,572.422546 
	C272.848633,573.454651 274.212128,574.348022 275.701752,575.538391 
M319.173676,661.742493 
	C322.861816,660.247070 323.455780,657.643311 321.221100,654.654053 
	C318.051239,650.413818 314.805939,646.168152 311.068848,642.451721 
	C309.955200,641.344116 307.085358,642.002441 305.020172,641.851624 
	C304.950836,643.909058 304.051880,646.503845 304.970093,647.921692 
	C307.565033,651.928650 310.793793,655.553711 314.012085,659.112854 
	C315.131470,660.350891 316.950928,660.955811 319.173676,661.742493 
M286.164368,607.639465 
	C286.411407,606.097107 287.191284,604.405334 286.808319,603.039612 
	C285.516266,598.431580 283.675537,593.979553 282.312012,589.388489 
	C281.407959,586.344543 279.151947,585.008728 276.765411,586.141235 
	C275.331909,586.821533 273.944550,589.957214 274.301666,591.607361 
	C275.342224,596.415405 277.274506,601.029968 278.850494,605.722656 
	C280.107300,609.464966 282.421783,610.199402 286.164368,607.639465 
M286.785248,621.509705 
	C289.796021,626.391785 292.806793,631.273865 295.716522,635.992126 
	C302.452179,634.101990 303.239990,632.404480 300.209930,627.268616 
	C298.364990,624.141418 296.287506,621.145691 294.552856,617.961060 
	C293.240570,615.551819 291.730408,613.647583 288.774841,614.744141 
	C285.924988,615.801270 285.412689,618.120178 286.785248,621.509705 
M626.609924,565.139832 
	C624.452271,562.258179 622.697632,558.882202 619.990295,556.674866 
	C618.285706,555.285095 615.048950,555.053467 612.706482,555.469055 
	C611.519897,555.679565 609.716797,558.804199 610.091003,560.033325 
	C610.774658,562.279175 612.468628,564.914978 614.471680,565.894531 
	C617.319824,567.287476 620.810242,567.504395 624.065674,567.834106 
	C624.917175,567.920288 625.914612,566.564758 626.609924,565.139832 
z"/>
<path fill="#F6F6F6" opacity="1.000000" stroke="none" 
	d="
M1003.365417,661.055725 
	C999.610596,654.165588 999.069641,646.876343 999.393127,639.541138 
	C1000.397095,616.774109 1001.820374,594.022949 1002.566895,571.248779 
	C1002.829956,563.223389 1001.525818,555.153320 1001.139771,547.093933 
	C1001.069336,545.623779 1001.648804,543.098938 1002.503662,542.819092 
	C1004.339600,542.218201 1006.763855,542.261963 1008.533752,543.014465 
	C1009.731079,543.523499 1010.964172,545.714478 1010.918030,547.111389 
	C1010.418579,562.242126 1009.633972,577.363037 1008.996704,592.489563 
	C1008.310852,608.768921 1007.699158,625.051392 1007.171021,641.732056 
	C1008.230835,647.176025 1009.359619,652.196472 1010.015259,657.278015 
	C1010.236267,658.990967 1009.256531,660.858887 1008.825439,662.655945 
	C1007.120117,662.169312 1005.414734,661.682617 1003.365417,661.055725 
z"/>
<path fill="#FDFDFD" opacity="1.000000" stroke="none" 
	d="
M454.688171,607.301147 
	C462.319031,610.290161 469.449097,613.628113 476.924988,615.744324 
	C480.059479,616.631531 484.038361,615.313232 487.436981,614.323303 
	C493.970490,612.420349 500.356079,610.012878 506.821014,607.868774 
	C508.478363,607.319031 510.202606,606.971008 512.469482,606.381104 
	C511.516724,628.838806 503.349396,647.324280 487.875214,663.706909 
	C484.975159,657.502502 482.027740,651.808350 479.634918,645.890015 
	C477.601105,640.859680 474.710968,637.087280 469.541962,634.951599 
	C466.348907,633.632324 463.488922,631.511719 460.467072,629.772339 
	C454.280426,626.211365 453.115448,626.453125 448.250427,631.814148 
	C442.108612,638.582092 435.897644,645.287170 429.604462,652.141418 
	C424.815216,649.729065 420.328735,647.582397 415.952271,645.230896 
	C412.064178,643.141968 408.969757,643.524109 405.722870,646.803711 
	C397.998627,654.606018 389.986359,662.123901 382.054718,669.719360 
	C380.394012,671.309692 378.579620,672.739441 376.135620,674.847229 
	C369.224487,668.144348 362.505707,661.628052 355.231293,654.572815 
	C363.015472,648.290588 369.829468,642.783203 376.656952,637.292603 
	C377.433380,636.668274 378.229706,636.027832 379.111298,635.581299 
	C393.155029,628.466553 396.586060,615.546570 398.008087,601.422424 
	C398.457001,596.963928 398.986572,592.420471 400.293091,588.165833 
	C401.786346,583.303162 400.415466,579.940308 396.966400,576.598633 
	C394.117706,573.838562 391.803345,570.527039 388.791565,566.906006 
	C391.588196,564.042969 394.081177,560.928833 397.120575,558.497742 
	C403.215210,553.622742 406.523773,547.135986 409.263062,540.079529 
	C411.967682,533.112427 415.216797,526.358459 418.027405,519.429932 
	C419.046021,516.919006 420.343689,515.774963 423.195221,516.010803 
	C429.910645,516.566406 436.649719,516.835327 444.291290,517.272461 
	C438.054810,527.419067 432.713226,536.402161 427.055786,545.181702 
	C424.512146,549.129150 424.809235,552.147095 428.306732,555.216064 
	C431.050995,557.624146 433.257599,560.701050 436.167206,562.853394 
	C443.558990,568.321289 442.906158,575.512268 440.938782,582.992554 
	C439.884430,587.001282 438.317261,590.873840 437.015289,594.819031 
	C435.892212,598.222168 436.834076,600.638000 440.362701,601.916931 
	C445.036469,603.611145 449.673950,605.405457 454.688171,607.301147 
z"/>
<path fill="#FDFDFD" opacity="1.000000" stroke="none" 
	d="
M389.425476,599.551758 
	C388.313354,605.532654 387.347321,611.105713 386.262207,616.655518 
	C386.051270,617.734192 385.655823,619.066895 384.873932,619.700195 
	C373.800018,628.669373 362.644714,637.537964 350.927887,646.895081 
	C335.587036,619.057556 335.131348,591.462280 348.261475,563.691223 
	C360.964600,536.823303 389.294342,520.079041 409.136169,518.229431 
	C402.943512,533.917480 397.316986,549.549561 383.308075,560.461914 
	C376.576447,565.705566 377.020782,567.173950 382.729645,573.307922 
	C392.425751,583.726074 392.425751,583.726074 389.425476,599.551758 
z"/>
<path fill="#FDFDFD" opacity="1.000000" stroke="none" 
	d="
M494.868347,550.134277 
	C504.553528,563.086975 510.132080,577.285461 512.082214,592.973083 
	C512.457336,595.990723 511.629272,597.317566 508.568573,598.275635 
	C500.339233,600.851379 492.315002,604.079285 484.099792,606.705444 
	C481.895508,607.410156 479.063568,607.559937 476.923340,606.811035 
	C467.992462,603.686096 459.250732,600.025208 450.363800,596.767761 
	C446.975159,595.525635 445.938507,593.802368 447.587585,590.460510 
	C451.214050,583.111511 450.330536,575.184875 450.107910,567.411865 
	C450.058228,565.677002 448.831818,563.687622 447.585815,562.331116 
	C444.323914,558.780090 440.845551,555.410156 437.267395,552.173828 
	C435.184418,550.289795 434.819763,548.837341 436.479462,546.298340 
	C441.206024,539.067749 445.707123,531.680908 450.044495,524.208984 
	C451.884338,521.039429 453.719543,520.298035 457.259369,521.706360 
	C472.321808,527.699036 484.743317,537.082397 494.868347,550.134277 
z"/>
<path fill="#FCFCFC" opacity="1.000000" stroke="none" 
	d="
M418.818512,689.098267 
	C406.723114,688.419250 395.971863,684.784973 385.021851,679.165527 
	C388.022797,676.006958 390.705780,672.987732 393.597107,670.183289 
	C398.608826,665.322327 403.856232,660.700989 408.788635,655.763306 
	C411.052521,653.496887 413.010284,653.179016 415.783478,654.751282 
	C419.674530,656.957397 423.779938,658.782959 427.770294,660.817200 
	C430.737366,662.329651 432.970886,661.710693 435.203339,659.156555 
	C440.997742,652.527161 447.081451,646.151367 452.922791,639.561951 
	C454.907654,637.322815 456.301697,637.638306 459.162598,638.627136 
	C470.120453,642.414490 472.985016,652.101501 477.035522,661.091492 
	C481.312500,670.583984 481.390533,670.633606 472.405304,676.219177 
	C456.124756,686.339722 438.575745,691.366150 418.818512,689.098267 
z"/>
<path fill="#F7F7F7" opacity="1.000000" stroke="none" 
	d="
M593.429138,560.425903 
	C601.115295,565.653320 602.913757,574.092651 597.343750,581.437805 
	C592.850769,587.362732 587.618835,592.791748 582.271912,597.984802 
	C577.802246,602.325745 577.788330,603.857788 583.724182,606.051086 
	C592.317749,609.226501 600.027100,613.583496 605.147095,621.522278 
	C612.261719,632.553894 608.884094,648.064941 598.107178,655.621155 
	C593.431091,658.899841 588.640259,660.733582 582.880676,660.793884 
	C580.099976,660.823059 577.221130,662.042175 574.592346,663.192444 
	C571.649048,664.480408 568.041809,662.502686 567.141174,658.341370 
	C566.511841,655.433655 566.152527,652.395020 566.207397,649.424683 
	C566.406433,638.643188 568.330444,627.642578 566.767639,617.146973 
	C565.050110,605.612915 568.829895,594.764465 568.030762,583.540955 
	C567.651184,578.209045 567.400818,573.212585 564.009460,568.454224 
	C560.263123,563.197876 563.936218,557.568054 570.485962,557.998718 
	C578.042908,558.495605 585.568909,559.462219 593.429138,560.425903 
M599.337463,641.324097 
	C601.272156,634.521118 600.891907,628.251221 595.498901,622.923889 
	C590.565125,618.050171 584.597595,615.459290 577.813416,614.929321 
	C576.907471,614.858521 575.026978,617.004883 574.951965,618.208801 
	C574.436096,626.493408 573.986816,634.806335 574.153198,643.097290 
	C574.219727,646.411621 575.899353,649.693481 576.628723,652.237000 
	C580.456604,651.671814 582.846863,650.866699 585.151917,651.062927 
	C592.242981,651.666321 596.302429,648.020508 599.337463,641.324097 
M590.984802,576.853821 
	C591.953979,570.866943 590.942261,569.084900 586.031982,568.130127 
	C580.459961,567.046692 577.431213,568.179321 577.127197,572.311951 
	C576.674072,578.472412 577.009705,584.690979 577.009705,591.722595 
	C583.446655,587.952148 588.165039,583.862488 590.984802,576.853821 
z"/>
<path fill="#FBFBFB" opacity="1.000000" stroke="none" 
	d="
M301.099121,513.407104 
	C312.562286,512.913879 323.538025,512.347778 334.520599,512.136963 
	C336.588867,512.097229 339.907684,512.967896 340.465973,514.320068 
	C341.209076,516.119751 340.456940,519.241333 339.234375,521.037659 
	C328.475586,536.846191 317.530670,552.529968 306.432648,568.102356 
	C305.429535,569.509827 302.609314,570.910400 301.281219,570.448792 
	C299.851654,569.951965 298.314972,567.240601 298.346954,565.523865 
	C298.451996,559.883118 299.274902,554.257690 299.757996,548.620850 
	C299.883820,547.152649 299.776917,545.664551 299.776917,543.506958 
	C297.664917,544.837830 296.025208,546.365540 294.102783,546.929443 
	C292.504547,547.398193 289.473969,547.301758 289.032318,546.446533 
	C288.247345,544.926453 288.205963,542.089844 289.176514,540.797302 
	C290.987976,538.384766 293.746979,536.683716 296.754425,534.143738 
	C290.171448,530.570801 284.110596,527.270569 278.035980,523.995972 
	C277.160553,523.524048 275.936707,523.409607 275.365234,522.721741 
	C274.098633,521.197144 273.144104,519.413391 272.062347,517.735291 
	C273.765930,516.689514 275.402832,514.885742 277.184601,514.729065 
	C284.971497,514.044312 292.800415,513.837524 301.099121,513.407104 
z"/>
<path fill="#F7F7F7" opacity="1.000000" stroke="none" 
	d="
M864.298584,582.719177 
	C855.735596,581.848389 849.110962,586.493713 846.726074,594.427490 
	C846.145386,596.359558 845.137817,598.163452 844.232910,600.240967 
	C839.216370,596.163391 838.420288,592.156677 841.252563,587.080322 
	C844.451782,581.346313 849.291504,577.343689 855.298523,574.887329 
	C862.397339,571.984558 871.119080,575.230286 876.631836,582.750488 
	C882.559998,590.837097 886.264954,599.823181 886.790039,609.934937 
	C887.566589,624.888794 888.458679,639.842712 888.780579,654.807861 
	C888.831726,657.183838 886.703308,660.434265 884.613525,661.841370 
	C881.182007,664.151978 877.596558,661.426880 877.929688,657.251099 
	C878.108826,655.004700 878.577209,652.781433 879.068176,649.535767 
	C875.528564,650.818237 872.615173,651.419434 870.177979,652.838440 
	C861.411804,657.942810 851.733887,659.204407 842.181091,657.834656 
	C830.346497,656.137756 819.925293,645.938110 830.364441,633.664673 
	C836.995178,625.868896 844.387878,618.542725 852.325500,612.097961 
	C857.852417,607.610474 865.111084,605.963623 872.568481,606.817505 
	C874.491821,607.037720 876.461853,606.850525 878.804565,606.850525 
	C876.684082,596.992737 873.646118,588.227539 864.298584,582.719177 
M862.754517,649.424072 
	C867.024719,648.056213 871.389282,646.915527 875.516418,645.203003 
	C877.058594,644.562988 879.058228,642.630005 879.114624,641.217163 
	C879.366150,634.923584 879.188049,628.591736 878.773315,622.299561 
	C878.476746,617.801208 875.788269,614.545776 871.201416,614.554321 
	C867.355957,614.561401 863.194641,615.248230 859.728699,616.842102 
	C849.332520,621.623047 841.253662,629.198120 836.561462,639.738220 
	C834.328125,644.754944 837.766052,650.523682 843.204041,650.773560 
	C849.432678,651.059631 855.717590,650.122559 862.754517,649.424072 
z"/>
<path fill="#F8F8F8" opacity="1.000000" stroke="none" 
	d="
M673.754517,618.326599 
	C674.441345,616.458618 674.955139,614.951965 675.584045,613.107727 
	C668.379944,611.925049 662.641785,614.507996 656.941589,617.108337 
	C654.526917,618.209900 652.337158,619.839417 649.876343,620.793762 
	C647.937561,621.545715 645.280273,622.543213 643.772949,621.783386 
	C641.844910,620.811646 640.129456,618.380127 639.450806,616.222656 
	C638.540588,613.329041 640.941284,612.437317 643.488647,611.838989 
	C647.630554,610.866150 651.697388,609.562317 655.774048,608.326111 
	C663.059204,606.116943 670.239746,603.452209 677.650146,601.825745 
	C680.341248,601.235168 684.546448,602.191711 686.233826,604.077332 
	C687.576477,605.577698 687.114380,610.156677 685.780518,612.352783 
	C676.642944,627.396790 667.033508,642.153503 657.648010,657.048157 
	C655.218567,660.903625 653.045044,664.920471 650.754028,668.863159 
	C651.084595,669.330994 651.415161,669.798828 651.745728,670.266602 
	C659.174683,668.513062 666.532959,666.306213 674.052551,665.134705 
	C681.436707,663.984253 688.984619,663.885742 696.460693,663.325562 
	C696.668945,664.079895 696.877136,664.834229 697.085388,665.588562 
	C695.795654,666.470642 694.622192,667.729736 693.196045,668.169250 
	C687.178406,670.023682 681.058777,671.544922 675.026672,673.355408 
	C667.099854,675.734558 659.265503,678.431885 651.301331,680.672180 
	C647.317017,681.792908 642.829163,682.693420 639.768311,678.880798 
	C638.683044,677.528931 638.288452,674.303162 639.152954,672.909851 
	C647.553528,659.371460 656.309692,646.054199 664.916870,632.643311 
	C667.873962,628.035767 670.697144,623.342224 673.754517,618.326599 
z"/>
<path fill="#F7F7F7" opacity="1.000000" stroke="none" 
	d="
M966.741943,667.298340 
	C957.550354,664.096924 951.457031,657.468567 946.912781,650.003296 
	C940.868530,640.073914 938.509521,628.517090 938.117737,617.044373 
	C937.456421,597.681274 955.319885,589.220764 969.136108,594.021606 
	C974.754089,595.973816 978.659851,600.344299 979.760498,605.688599 
	C981.219055,612.770630 981.337341,620.206665 981.312622,627.488159 
	C981.296570,632.210754 978.965271,633.109192 974.365845,632.627991 
	C965.998657,631.752625 957.578613,631.382996 948.831482,630.778198 
	C949.375305,641.808411 954.458313,649.609680 961.918152,656.588745 
	C970.007690,664.156799 978.780701,663.851562 988.311096,660.717773 
	C991.355347,659.716675 994.526123,659.100464 998.182678,658.169861 
	C994.960266,665.966919 978.577026,670.428345 966.741943,667.298340 
M957.722656,601.909912 
	C949.347046,606.036743 946.659485,611.174622 948.441467,619.986389 
	C954.243286,620.931030 960.129761,621.894775 966.019043,622.841125 
	C966.673035,622.946167 967.484985,623.220398 967.980469,622.957642 
	C969.949341,621.913391 972.943970,621.099060 973.545166,619.460693 
	C977.113220,609.738159 968.627075,599.979858 957.722656,601.909912 
z"/>
<path fill="#F8F8F8" opacity="1.000000" stroke="none" 
	d="
M719.768250,641.552979 
	C720.518982,629.825562 721.216003,618.552856 721.935059,607.281494 
	C722.219849,602.818115 720.308289,600.971863 715.722168,601.221680 
	C710.244995,601.520020 704.738159,601.230835 699.245911,601.312927 
	C695.692139,601.366089 692.548706,600.520813 692.702148,596.382385 
	C692.853271,592.307678 696.383301,592.263489 699.432068,592.299622 
	C704.089478,592.354736 708.749817,592.724792 713.398621,592.594055 
	C714.683594,592.557861 716.069458,591.381531 717.166626,590.444397 
	C719.035950,588.847656 720.888000,585.499023 722.428284,585.675232 
	C724.478027,585.909607 727.315125,588.525940 727.873108,590.632996 
	C729.080139,595.190735 731.799377,595.653809 735.647278,595.601562 
	C746.132812,595.459167 756.629456,595.309692 767.105835,595.649597 
	C772.374817,595.820618 777.624695,596.961426 782.846863,597.872192 
	C783.879456,598.052246 784.745911,599.184875 785.336182,601.060791 
	C783.603394,601.138367 781.870605,601.281189 780.137756,601.283264 
	C765.488525,601.300903 750.838257,601.388123 736.190735,601.230042 
	C732.229187,601.187317 730.799927,602.218018 730.625793,606.554871 
	C730.019775,621.650024 728.799255,636.719849 727.901733,651.804626 
	C727.754395,654.280396 727.579468,656.921509 728.252502,659.244141 
	C729.630249,663.998169 728.570801,667.713318 724.685303,670.758484 
	C718.605408,669.852234 717.741455,668.971252 718.104492,662.902039 
	C718.521606,655.930115 719.173523,648.972229 719.768250,641.552979 
z"/>
<path fill="#F7F7F7" opacity="1.000000" stroke="none" 
	d="
M900.757629,606.082153 
	C902.756592,610.258789 904.606018,614.246155 905.969360,618.393250 
	C908.498962,626.087891 910.521362,633.955200 913.232178,641.580933 
	C914.154785,644.176208 916.513123,646.261108 919.065979,649.737488 
	C920.083679,646.364258 920.841797,644.590332 921.140686,642.742188 
	C923.282776,629.496460 925.330261,616.235352 927.412048,602.979858 
	C927.566895,601.993835 927.448792,600.769897 927.994568,600.083679 
	C928.940857,598.893860 930.307617,598.038391 931.498108,597.042725 
	C932.404602,598.254089 933.983337,599.410400 934.088074,600.687500 
	C934.371460,604.144043 934.330688,607.691406 933.881958,611.132751 
	C931.936462,626.051636 929.994507,640.977295 927.570251,655.821960 
	C927.075134,658.853760 924.893982,661.882568 922.790833,664.305908 
	C920.502869,666.942139 916.581909,665.263672 914.446655,660.403687 
	C909.397827,648.912170 904.746948,637.246399 899.803833,625.707397 
	C897.941223,621.359253 895.429993,617.272705 893.788208,612.853699 
	C893.070862,610.922974 892.975403,607.729736 894.109619,606.451599 
	C895.112183,605.321655 898.213867,606.054565 900.757629,606.082153 
z"/>
<path fill="#F7F7F7" opacity="1.000000" stroke="none" 
	d="
M812.637451,610.592468 
	C816.499329,606.545837 820.966492,605.173157 826.044983,605.922424 
	C827.380554,606.119507 829.608032,606.896790 829.691284,607.610107 
	C829.878113,609.210999 829.166748,611.028503 828.437744,612.577393 
	C828.073486,613.351257 826.932068,614.059692 826.032471,614.235229 
	C816.219971,616.148987 813.743652,624.235535 810.934814,632.029846 
	C807.615234,641.241577 804.636902,650.592041 800.877869,659.618835 
	C799.903442,661.958740 796.804199,663.855408 794.251038,664.977539 
	C791.455750,666.205994 788.961182,663.160645 789.103760,658.992493 
	C789.462463,648.507202 790.160645,638.027100 790.236877,627.541382 
	C790.271423,622.787720 789.029358,618.035889 788.636597,613.260986 
	C788.522949,611.879700 789.346619,610.421387 789.740540,608.998352 
	C791.334839,609.468567 793.656067,609.450195 794.369873,610.512207 
	C795.788879,612.623413 796.795227,615.266785 797.130554,617.801697 
	C797.998779,624.364624 798.410217,630.987976 799.056763,638.172852 
	C803.635498,628.782959 808.008057,619.815979 812.637451,610.592468 
z"/>
<path fill="#F0F0F0" opacity="1.000000" stroke="none" 
	d="
M623.036011,641.708862 
	C622.272034,632.022705 621.278442,622.797424 620.934326,613.547913 
	C620.857422,611.481628 622.557251,608.391174 624.332153,607.441528 
	C626.909180,606.062622 630.491638,609.659973 630.532410,613.292969 
	C630.677856,626.229492 630.628052,639.168640 630.830933,652.104004 
	C630.903381,656.722839 631.659973,661.331360 631.722351,665.949768 
	C631.740112,667.266174 630.415833,668.600647 629.706909,669.926880 
	C628.409729,669.103149 626.457947,668.567505 625.943726,667.399231 
	C624.643372,664.444641 623.464111,661.250122 623.194336,658.070496 
	C622.747437,652.800842 623.052490,647.467407 623.036011,641.708862 
z"/>
<path fill="#F6F6F6" opacity="1.000000" stroke="none" 
	d="
M275.349548,575.421997 
	C274.212128,574.348022 272.848633,573.454651 272.733887,572.422546 
	C271.878174,564.724976 275.252869,558.263916 279.411194,552.216553 
	C279.943695,551.442200 282.934418,551.237671 283.602600,551.923096 
	C284.791412,553.142700 285.935974,555.449890 285.581207,556.941162 
	C284.327759,562.210205 282.699341,567.438416 280.612396,572.430908 
	C280.000366,573.895142 277.394043,574.525696 275.349548,575.421997 
z"/>
<path fill="#F6F6F6" opacity="1.000000" stroke="none" 
	d="
M318.812164,661.796204 
	C316.950928,660.955811 315.131470,660.350891 314.012085,659.112854 
	C310.793793,655.553711 307.565033,651.928650 304.970093,647.921692 
	C304.051880,646.503845 304.950836,643.909058 305.020172,641.851624 
	C307.085358,642.002441 309.955200,641.344116 311.068848,642.451721 
	C314.805939,646.168152 318.051239,650.413818 321.221100,654.654053 
	C323.455780,657.643311 322.861816,660.247070 318.812164,661.796204 
z"/>
<path fill="#F6F6F6" opacity="1.000000" stroke="none" 
	d="
M285.944153,607.898987 
	C282.421783,610.199402 280.107300,609.464966 278.850494,605.722656 
	C277.274506,601.029968 275.342224,596.415405 274.301666,591.607361 
	C273.944550,589.957214 275.331909,586.821533 276.765411,586.141235 
	C279.151947,585.008728 281.407959,586.344543 282.312012,589.388489 
	C283.675537,593.979553 285.516266,598.431580 286.808319,603.039612 
	C287.191284,604.405334 286.411407,606.097107 285.944153,607.898987 
z"/>
<path fill="#F6F6F6" opacity="1.000000" stroke="none" 
	d="
M286.585480,621.180664 
	C285.412689,618.120178 285.924988,615.801270 288.774841,614.744141 
	C291.730408,613.647583 293.240570,615.551819 294.552856,617.961060 
	C296.287506,621.145691 298.364990,624.141418 300.209930,627.268616 
	C303.239990,632.404480 302.452179,634.101990 295.716522,635.992126 
	C292.806793,631.273865 289.796021,626.391785 286.585480,621.180664 
z"/>
<path fill="#F6F6F6" opacity="1.000000" stroke="none" 
	d="
M626.727478,565.505615 
	C625.914612,566.564758 624.917175,567.920288 624.065674,567.834106 
	C620.810242,567.504395 617.319824,567.287476 614.471680,565.894531 
	C612.468628,564.914978 610.774658,562.279175 610.091003,560.033325 
	C609.716797,558.804199 611.519897,555.679565 612.706482,555.469055 
	C615.048950,555.053467 618.285706,555.285095 619.990295,556.674866 
	C622.697632,558.882202 624.452271,562.258179 626.727478,565.505615 
z"/>
<path fill="#212020" opacity="1.000000" stroke="none" 
	d="
M599.149292,641.683228 
	C596.302429,648.020508 592.242981,651.666321 585.151917,651.062927 
	C582.846863,650.866699 580.456604,651.671814 576.628723,652.237000 
	C575.899353,649.693481 574.219727,646.411621 574.153198,643.097290 
	C573.986816,634.806335 574.436096,626.493408 574.951965,618.208801 
	C575.026978,617.004883 576.907471,614.858521 577.813416,614.929321 
	C584.597595,615.459290 590.565125,618.050171 595.498901,622.923889 
	C600.891907,628.251221 601.272156,634.521118 599.149292,641.683228 
z"/>
<path fill="#232222" opacity="1.000000" stroke="none" 
	d="
M590.860229,577.243713 
	C588.165039,583.862488 583.446655,587.952148 577.009705,591.722595 
	C577.009705,584.690979 576.674072,578.472412 577.127197,572.311951 
	C577.431213,568.179321 580.459961,567.046692 586.031982,568.130127 
	C590.942261,569.084900 591.953979,570.866943 590.860229,577.243713 
z"/>
<path fill="#212020" opacity="1.000000" stroke="none" 
	d="
M862.366272,649.570496 
	C855.717590,650.122559 849.432678,651.059631 843.204041,650.773560 
	C837.766052,650.523682 834.328125,644.754944 836.561462,639.738220 
	C841.253662,629.198120 849.332520,621.623047 859.728699,616.842102 
	C863.194641,615.248230 867.355957,614.561401 871.201416,614.554321 
	C875.788269,614.545776 878.476746,617.801208 878.773315,622.299561 
	C879.188049,628.591736 879.366150,634.923584 879.114624,641.217163 
	C879.058228,642.630005 877.058594,644.562988 875.516418,645.203003 
	C871.389282,646.915527 867.024719,648.056213 862.366272,649.570496 
z"/>
<path fill="#232222" opacity="1.000000" stroke="none" 
	d="
M958.104187,601.818481 
	C968.627075,599.979858 977.113220,609.738159 973.545166,619.460693 
	C972.943970,621.099060 969.949341,621.913391 967.980469,622.957642 
	C967.484985,623.220398 966.673035,622.946167 966.019043,622.841125 
	C960.129761,621.894775 954.243286,620.931030 948.441467,619.986389 
	C946.659485,611.174622 949.347046,606.036743 958.104187,601.818481 
z"/>
</svg>