<?xml version="1.0" encoding="iso-8859-1"?>
<!-- Generator: Adobe Illustrator 19.0.0, SVG Export Plug-In . SVG Version: 6.00 Build 0)  -->
<svg version="1.1" id="Layer_1" xmlns="http://www.w3.org/2000/svg" xmlns:xlink="http://www.w3.org/1999/xlink" x="0px" y="0px"
	 viewBox="0 0 512 512" style="enable-background:new 0 0 512 512;" xml:space="preserve">
<polygon style="fill:#E55C8D;" points="362.684,152.705 432.979,279.071 103.596,279.071 103.596,26.34 432.979,26.34 "/>
<polygon style="fill:#F7729B;" points="362.684,152.705 432.979,279.071 209.686,279.071 304.309,26.34 432.979,26.34 "/>
<polygon style="fill:#FCD559;" points="105.299,279.071 105.299,503.147 77.031,503.147 77.031,8.176 105.299,8.176 105.299,26.34 
	"/>
<polygon style="fill:#E2B844;" points="91.356,279.071 91.356,503.147 77.031,503.147 77.031,8.176 91.356,8.176 91.356,26.34 "/>
<path d="M374.273,153.044l67.993-122.226c1.468-2.637,1.429-5.853-0.101-8.455c-1.529-2.601-4.322-4.198-7.339-4.198h-217.99
	c-4.702,0-8.514,3.812-8.514,8.514s3.812,8.514,8.514,8.514h203.51L357.09,148.905c-1.433,2.574-1.433,5.705,0,8.278l63.255,113.712
	H113.957V35.193h71.657c4.702,0,8.514-3.812,8.514-8.514s-3.812-8.514-8.514-8.514h-71.657v-9.65c0-4.702-3.812-8.514-8.514-8.514
	H77.174c-4.702,0-8.514,3.812-8.514,8.514v394.24c0,4.702,3.812,8.514,8.514,8.514s8.514-3.812,8.514-8.514V17.029h11.239v477.942
	H85.689v-61.565c0-4.702-3.812-8.514-8.514-8.514s-8.514,3.812-8.514,8.514v70.079c0,4.702,3.812,8.514,8.514,8.514h28.268
	c4.702,0,8.514-3.812,8.514-8.514V287.923h320.868c3.018,0,5.81-1.597,7.339-4.198c1.53-2.602,1.569-5.818,0.101-8.455
	L374.273,153.044z"/>
<g>
</g>
<g>
</g>
<g>
</g>
<g>
</g>
<g>
</g>
<g>
</g>
<g>
</g>
<g>
</g>
<g>
</g>
<g>
</g>
<g>
</g>
<g>
</g>
<g>
</g>
<g>
</g>
<g>
</g>
</svg>
